<?xml version="1.0" encoding="utf-8"?>
<!-- Generator: Adobe Illustrator 24.1.2, SVG Export Plug-In . SVG Version: 6.00 Build 0)  -->
<svg version="1.1" id="Camada_1" xmlns="http://www.w3.org/2000/svg" xmlns:xlink="http://www.w3.org/1999/xlink" x="0px" y="0px"
	 viewBox="0 0 1024 1024" style="enable-background:new 0 0 1024 1024;" xml:space="preserve">
<style type="text/css">
	.st0{fill:#563D7C;}
	.st1{fill:#FFFFFF;}
</style>
<path class="st0" d="M900,766.67C900,840,840,900,766.67,900H233.33C160,900,100,840,100,766.67V233.33C100,160,160,100,233.33,100
	h533.33C840,100,900,160,900,233.33V766.67z"/>
<path class="st1" d="M317.39,273.86h226.8c41.83,0,75.42,9.54,100.65,28.76c25.23,19.22,37.91,48.1,37.91,86.93
	c0,23.53-5.75,43.66-17.25,60.39c-11.5,16.73-27.97,29.8-49.41,38.95v1.31c28.76,6.14,50.59,19.74,65.36,40.78
	c14.77,21.18,22.22,47.58,22.22,79.48c0,18.3-3.27,35.42-9.8,51.24c-6.54,15.95-16.73,29.67-30.72,41.18
	c-13.99,11.5-31.76,20.65-53.59,27.45c-21.83,6.8-47.71,10.2-77.78,10.2H317.39V273.86z M399.08,469.28h133.33
	c19.61,0,35.95-5.49,49.02-16.73c13.07-11.24,19.61-27.19,19.61-48.1c0-23.53-5.88-40.13-17.65-49.67
	c-11.76-9.54-28.76-14.38-50.98-14.38H399.08V469.28z M399.08,673.86h144.44c24.84,0,44.18-6.41,57.78-19.35
	c13.73-12.81,20.65-31.11,20.65-54.64c0-23.14-6.8-40.78-20.65-53.33c-13.86-12.55-32.94-18.56-57.78-18.56H399.08V673.86z"/>
</svg>
