<?xml version="1.0" encoding="utf-8"?>
<!-- Generator: Adobe Illustrator 24.1.2, SVG Export Plug-In . SVG Version: 6.00 Build 0)  -->
<svg version="1.1" id="Camada_1" xmlns="http://www.w3.org/2000/svg" xmlns:xlink="http://www.w3.org/1999/xlink" x="0px" y="0px"
	 viewBox="0 0 1024 1024" style="enable-background:new 0 0 1024 1024;" xml:space="preserve">
<style type="text/css">
	.st0{clip-path:url(#SVGID_2_);}
	.st1{fill:url(#path3462_1_);}
	.st2{clip-path:url(#SVGID_4_);}
	.st3{fill:#777BB3;}
	.st4{clip-path:url(#SVGID_6_);}
	.st5{fill:#FFFFFF;}
</style>
<g id="g3438" transform="matrix(1.25,0,0,-1.25,-4.4,394.29875)">
	<g id="g3440">
		<g>
			<defs>
				<path id="SVGID_1_" d="M96.32-84.56c0-89.25,137.54-161.6,307.2-161.6l0,0c169.66,0,307.2,72.35,307.2,161.6l0,0
					c0,89.25-137.54,161.6-307.2,161.6l0,0C233.86,77.04,96.32,4.69,96.32-84.56"/>
			</defs>
			<clipPath id="SVGID_2_">
				<use xlink:href="#SVGID_1_"  style="overflow:visible;"/>
			</clipPath>
			<g id="g3442" class="st0">
				<g id="g3448">
					<g id="g3450">
						
							<radialGradient id="path3462_1_" cx="4.5457" cy="-504.0426" r="1.1111" gradientTransform="matrix(453.8224 0 0 -453.8224 -1782.1926 -228725.5625)" gradientUnits="userSpaceOnUse">
							<stop  offset="0" style="stop-color:#AEB2D5"/>
							<stop  offset="0.3" style="stop-color:#AEB2D5"/>
							<stop  offset="0.75" style="stop-color:#484C89"/>
							<stop  offset="1" style="stop-color:#484C89"/>
						</radialGradient>
						<path id="path3462" class="st1" d="M96.32-84.56c0-89.25,137.54-161.6,307.2-161.6l0,0c169.66,0,307.2,72.35,307.2,161.6l0,0
							c0,89.25-137.54,161.6-307.2,161.6l0,0C233.86,77.04,96.32,4.69,96.32-84.56"/>
					</g>
				</g>
			</g>
		</g>
	</g>
	<g id="g3464">
		<g>
			<defs>
				<rect id="SVGID_3_" x="3.52" y="-309.56" width="800" height="450"/>
			</defs>
			<clipPath id="SVGID_4_">
				<use xlink:href="#SVGID_3_"  style="overflow:visible;"/>
			</clipPath>
			<g id="g3466" class="st2">
				<g id="g3472" transform="translate(288,27.3594)">
					<path id="path3474" class="st3" d="M115.52-261.52c163.03,0,295.2,66.98,295.2,149.6c0,82.62-132.17,149.6-295.2,149.6
						s-295.2-66.98-295.2-149.6C-179.68-194.54-47.51-261.52,115.52-261.52"/>
				</g>
			</g>
		</g>
	</g>
	<g id="g3476">
		<g>
			<defs>
				<rect id="SVGID_5_" x="3.52" y="-309.56" width="800" height="450"/>
			</defs>
			<clipPath id="SVGID_6_">
				<use xlink:href="#SVGID_5_"  style="overflow:visible;"/>
			</clipPath>
			<g id="g3478" class="st4">
				<g id="g3484" transform="translate(161.7344,145.3066)">
					<path id="path3486" d="M101.49-248.42c13.41,0,23.41,2.47,29.75,7.35c6.26,4.82,10.59,13.18,12.86,24.84
						c2.11,10.9,1.31,18.5-2.39,22.61c-3.79,4.19-11.97,6.32-24.33,6.32H95.95l-11.88-61.11H101.49z M31.42-323.69
						c-0.99,0-1.94,0.44-2.57,1.21c-0.63,0.77-0.89,1.78-0.7,2.76l31.48,161.95c0.3,1.57,1.68,2.7,3.27,2.7h67.84
						c21.32,0,37.19-5.79,47.16-17.21c10.03-11.48,13.12-27.52,9.2-47.69c-1.6-8.22-4.34-15.85-8.16-22.68
						c-3.82-6.84-8.87-13.17-15.01-18.81c-7.35-6.88-15.67-11.87-24.71-14.8c-8.89-2.9-20.31-4.37-33.94-4.37H77.81L69.97-321
						c-0.3-1.57-1.68-2.7-3.27-2.7H31.42z"/>
				</g>
				<g id="g3488" transform="translate(159.2236,197.3071)">
					<path id="path3490" class="st5" d="M101.21-242.64h18.68c14.91,0,20.09-3.27,21.85-5.22c2.92-3.24,3.47-10.06,1.59-19.74
						c-2.11-10.83-6.02-18.51-11.62-22.83c-5.74-4.42-15.06-6.65-27.71-6.65H90.63L101.21-242.64z M133.25-203.75H65.41
						c-3.19,0-5.93-2.26-6.54-5.39L27.39-371.09c-0.38-1.95,0.13-3.98,1.4-5.51c1.27-1.54,3.15-2.43,5.14-2.43h35.28
						c3.19,0,5.94,2.26,6.54,5.39l7.32,37.66h24.72c13.98,0,25.75,1.52,34.98,4.53c9.49,3.08,18.22,8.31,25.95,15.54
						c6.39,5.88,11.66,12.48,15.64,19.62c3.99,7.14,6.86,15.1,8.52,23.67c4.13,21.23,0.77,38.22-9.97,50.52
						C172.28-209.92,155.57-203.75,133.25-203.75 M82.54-303.75H104c14.22,0,24.82,2.68,31.78,8.04
						c6.96,5.36,11.66,14.31,14.1,26.84c2.33,12.04,1.27,20.53-3.19,25.48c-4.47,4.95-13.4,7.42-26.8,7.42H95.72L82.54-303.75
						 M133.25-210.42c20.41,0,35.3-5.36,44.65-16.07c9.36-10.71,12.17-25.66,8.44-44.86c-1.54-7.91-4.14-15.14-7.79-21.69
						c-3.66-6.55-8.45-12.55-14.36-17.98c-7.04-6.59-14.87-11.29-23.48-14.09c-8.61-2.81-19.58-4.2-32.91-4.2H77.58l-8.37-43.06
						H33.93l31.48,161.94H133.25"/>
				</g>
				<g id="g3492" transform="translate(311.583,116.3066)">
					<path id="path3494" d="M118.14-251.64c-1,0-1.94,0.44-2.57,1.21c-0.63,0.77-0.89,1.78-0.7,2.76l13.92,71.65
						c1.32,6.81,1,11.71-0.92,13.77c-1.17,1.26-4.7,3.38-15.12,3.38H87.53l-17.51-90.08c-0.3-1.57-1.68-2.7-3.27-2.7h-35
						c-1,0-1.94,0.44-2.57,1.21c-0.63,0.77-0.89,1.78-0.7,2.76L59.95-85.72c0.3,1.57,1.68,2.7,3.27,2.7h35c1,0,1.94-0.44,2.57-1.21
						c0.63-0.77,0.89-1.78,0.7-2.76l-7.6-39.09h27.14c20.67,0,34.69-3.64,42.85-11.14c8.32-7.65,10.92-19.88,7.72-36.35
						l-14.64-75.36c-0.3-1.57-1.68-2.7-3.27-2.7H118.14z"/>
				</g>
				<g id="g3496" transform="translate(293.6611,271.0571)">
					<path id="path3498" class="st5" d="M116.15-234.44h-35c-3.19,0-5.94-2.26-6.54-5.39L43.13-401.78
						c-0.38-1.95,0.13-3.98,1.4-5.51s3.15-2.43,5.14-2.43h35c3.19,0,5.94,2.26,6.54,5.39l16.98,87.38h22.48
						c10.4,0,12.59-2.22,12.67-2.32c0.63-0.68,1.46-3.82,0.09-10.87l-13.92-71.65c-0.38-1.95,0.13-3.98,1.4-5.51
						c1.27-1.54,3.15-2.43,5.14-2.43h35.56c3.19,0,5.94,2.26,6.54,5.39l14.64,75.36c3.44,17.69,0.5,30.96-8.73,39.44
						c-8.81,8.09-23.56,12.02-45.11,12.02h-23.09l6.83,35.12c0.38,1.95-0.13,3.98-1.4,5.51
						C120.03-235.33,118.14-234.44,116.15-234.44 M116.15-241.11l-8.37-43.06h31.18c19.62,0,33.15-3.42,40.6-10.26
						c7.45-6.84,9.68-17.93,6.7-33.26l-14.64-75.36h-35.56l13.92,71.65c1.58,8.15,1,13.71-1.75,16.68
						c-2.75,2.96-8.61,4.45-17.56,4.45H102.7l-18.03-92.78h-35l31.48,161.94H116.15"/>
				</g>
				<g id="g3500" transform="translate(409.5498,145.3066)">
					<path id="path3502" d="M129.03-248.42c13.41,0,23.41,2.47,29.75,7.35c6.26,4.82,10.59,13.18,12.86,24.84
						c2.11,10.9,1.31,18.5-2.39,22.61c-3.79,4.19-11.97,6.32-24.33,6.32h-21.42l-11.88-61.11H129.03z M58.96-323.69
						c-0.99,0-1.94,0.44-2.57,1.21c-0.63,0.77-0.89,1.78-0.7,2.76l31.48,161.95c0.31,1.57,1.68,2.7,3.27,2.7h67.84
						c21.32,0,37.19-5.79,47.16-17.21c10.03-11.48,13.12-27.52,9.2-47.69c-1.6-8.22-4.34-15.85-8.16-22.68
						c-3.82-6.84-8.87-13.17-15.01-18.81c-7.35-6.88-15.67-11.87-24.71-14.8c-8.89-2.9-20.31-4.37-33.94-4.37h-27.47L97.51-321
						c-0.31-1.57-1.68-2.7-3.27-2.7H58.96z"/>
				</g>
				<g id="g3504" transform="translate(407.0391,197.3071)">
					<path id="path3506" class="st5" d="M128.75-242.64h18.68c14.91,0,20.09-3.27,21.85-5.22c2.92-3.24,3.47-10.06,1.59-19.74
						c-2.11-10.83-6.02-18.52-11.62-22.83c-5.74-4.42-15.06-6.65-27.71-6.65h-13.37L128.75-242.64z M160.78-203.75H92.94
						c-3.19,0-5.93-2.26-6.54-5.39L54.92-371.09c-0.38-1.95,0.13-3.98,1.4-5.51c1.27-1.54,3.15-2.43,5.14-2.43h35.28
						c3.19,0,5.94,2.26,6.54,5.39l7.32,37.66h24.72c13.98,0,25.75,1.52,34.98,4.53c9.49,3.08,18.22,8.31,25.95,15.54
						c6.39,5.88,11.65,12.48,15.64,19.62c3.99,7.14,6.86,15.1,8.52,23.67c4.13,21.23,0.77,38.23-9.97,50.52
						C199.82-209.92,183.11-203.75,160.78-203.75 M110.08-303.75h21.46c14.22,0,24.82,2.68,31.78,8.04
						c6.96,5.36,11.66,14.31,14.1,26.84c2.34,12.04,1.27,20.53-3.19,25.48c-4.47,4.95-13.4,7.42-26.8,7.42h-24.17L110.08-303.75
						 M160.78-210.42c20.41,0,35.3-5.36,44.65-16.07c9.36-10.71,12.17-25.66,8.44-44.86c-1.54-7.91-4.14-15.14-7.79-21.69
						c-3.66-6.55-8.45-12.55-14.36-17.98c-7.04-6.59-14.87-11.29-23.48-14.09c-8.61-2.81-19.58-4.2-32.91-4.2h-30.22l-8.37-43.06
						H61.47l31.48,161.94H160.78"/>
				</g>
			</g>
		</g>
	</g>
</g>
</svg>
